<?xml version="1.0" encoding="UTF-8"?>
<svg id="a" xmlns="http://www.w3.org/2000/svg" viewBox="0 0 1080 1080">
  <defs>
    <style>
      .cls-1 {
        fill: #e5412a;
      }
    </style>
  </defs>
  <path class="cls-1" d="M423.31,206.15l-39.62,18.57c-14.56,6.83-27.51,16.67-37.97,28.88l-85.58,99.84c-14.04,16.38-23.11,36.42-26.16,57.77l-7.19,50.34c-1.84,12.85-5.87,25.29-11.91,36.78l-30.03,57.06c-12.51,23.77-16.18,51.21-10.35,77.42l.76,3.42c8.48,38.17,36.02,69.27,72.88,82.31l125.1,44.27c3.95,1.4,7.98,2.58,12.06,3.53l132.23,30.85c24.19,5.64,45.85,19.07,61.67,38.22h0c19.93,24.13,48.95,38.95,80.18,40.95l124.14,7.96c34.86,2.23,68.81-11.72,92.02-37.83l4.03-4.54c31.73-35.69,37.7-87.44,14.93-129.42l-48.44-89.31c-4.85-8.93-10.87-17.18-17.91-24.5l-108.05-112.46c-16.13-16.79-26.7-38.14-30.28-61.14l-10.99-70.66c-2.63-16.93-9.07-33.04-18.82-47.12l-36.92-53.33c-17.45-25.21-44.36-42.27-74.6-47.31l-58.39-9.73c-22.68-3.78-45.97-.58-66.78,9.18Z"/>
</svg>