<?xml version="1.0" encoding="UTF-8"?>
<svg id="a" xmlns="http://www.w3.org/2000/svg" viewBox="0 0 1080 1080">
  <defs>
    <style>
      .cls-1 {
        fill: #7f67bd;
      }
    </style>
  </defs>
  <path class="cls-1" d="M879.08,225.33h0c26.1,28.58,35.68,68.57,25.37,105.87l-35.62,128.89c-6.05,21.91-18.6,41.48-35.99,56.12l-56.64,47.7c-18.14,15.27-40.64,24.43-64.29,26.16l-14.58,1.07c-42.35,3.1-79.35,29.77-95.69,68.97l-78.9,189.36c-16.11,38.66-52.35,65.18-94.06,68.84l-15.71,1.38c-49.45,4.34-95.91-24.23-114.34-70.32l-25.66-64.15c-5.08-12.71-12.44-24.38-21.72-34.45l-50.02-54.31c-24.16-26.23-34.46-62.36-27.76-97.39l17.12-89.54c6.5-33.98,28.26-63.08,59.01-78.93l141.47-72.88c2.01-1.04,3.99-2.13,5.94-3.29l136.78-81.26c5.41-3.21,10.54-6.87,15.34-10.94l89.1-75.6c30.15-25.58,71.51-33.47,108.96-20.77l84.91,28.78c18,6.1,34.17,16.67,46.99,30.71Z"/>
</svg>