<?xml version="1.0" encoding="UTF-8"?>
<svg id="a" xmlns="http://www.w3.org/2000/svg" viewBox="0 0 1080 1080">
  <defs>
    <style>
      .cls-1 {
        fill: #a13c13;
      }
    </style>
  </defs>
  <path class="cls-1" d="M367.54,421.38l-21.98-89.75c-7.06-28.83-1-59.31,16.55-83.25l33.04-45.06c22.05-30.07,58.96-45.44,95.85-39.91l18.37,2.76c24.92,3.74,47.52,16.71,63.31,36.33l66.92,83.14c3.4,4.23,7.15,8.18,11.19,11.8l125.86,112.84c23.8,21.34,36.01,52.73,32.9,84.54l-6.35,64.81c-2.15,21.98-11.49,42.63-26.57,58.76l-76.98,82.35c-16.54,17.69-26.12,40.77-26.99,64.97h0c-1.01,28.3-13.92,54.85-35.56,73.12l-65.35,55.18c-20.72,17.5-47.64,25.87-74.64,23.2l-122.8-12.13c-43.05-4.25-78.53-35.6-88.06-77.79l-13.83-61.24c-7.04-31.17,1.18-63.83,22.14-87.95l80.37-92.5c25.33-29.15,31.69-70.24,16.36-105.69l-18.41-42.56c-2.23-5.16-4.03-10.5-5.36-15.97Z"/>
</svg>