<?xml version="1.0" encoding="UTF-8"?>
<svg id="a" xmlns="http://www.w3.org/2000/svg" viewBox="0 0 1080 1080">
  <defs>
    <style>
      .cls-1 {
        fill: #6fa2d2;
      }
    </style>
  </defs>
  <path class="cls-1" d="M565.88,196.88l-115.23,62.05c-10.16,5.47-17.95,14.48-21.89,25.32l-161.78,444.9c-4.89,13.45-3.39,28.4,4.09,40.6l59.1,96.53c10.17,16.62,29.54,25.23,48.7,21.66l126.8-23.64c9.2-1.71,17.67-6.13,24.34-12.69l155.74-153.15c6.32-6.21,14.26-10.51,22.91-12.4l47.62-10.42c19.63-4.29,34.35-20.59,36.65-40.55l22.62-196.76c1.77-15.37-4.14-30.63-15.81-40.79l-78.52-68.46c-10.75-9.38-16.67-23.13-16.07-37.38l.71-16.99c.78-18.66-9.57-36.01-26.35-44.2l-70.72-34.5c-13.6-6.63-29.56-6.31-42.89.86Z"/>
</svg>