<?xml version="1.0" encoding="UTF-8"?>
<svg id="a" xmlns="http://www.w3.org/2000/svg" viewBox="0 0 1080 1080">
  <defs>
    <style>
      .cls-1 {
        fill: #df828f;
      }
    </style>
  </defs>
  <path class="cls-1" d="M705.77,241.37l60.65,92.87c7.05,10.79,16.27,20,27.08,27.02h0c26.29,17.09,42.16,46.32,42.16,77.68v61.33c0,29.24-13.81,56.77-37.25,74.26l-126.97,94.72c-13.23,9.87-23.58,23.09-29.99,38.31l-42.37,100.62c-11.39,27.05-34.92,47.1-63.43,54.06l-105.22,25.66c-49.51,12.08-99.48-18.1-111.84-67.54l-1.24-4.95c-1.84-7.35-2.77-14.9-2.77-22.47v-70.24c0-24.57-9.76-48.14-27.14-65.51l-15.98-15.98c-17.38-17.38-27.14-40.94-27.14-65.51v-64.93c0-46.44,34.38-85.7,80.4-91.84l4.3-.57c29.53-3.94,55.36-21.83,69.42-48.09l57.08-106.55c5.51-10.29,12.91-19.44,21.82-26.98l30.02-25.4c20.69-17.51,48.02-25.08,74.77-20.71l60.97,9.95c25.68,4.19,48.42,18.99,62.64,40.78Z"/>
</svg>