<?xml version="1.0" encoding="UTF-8"?>
<svg id="a" xmlns="http://www.w3.org/2000/svg" viewBox="0 0 1080 1080">
  <defs>
    <style>
      .cls-1 {
        fill: #e9a019;
      }
    </style>
  </defs>
  <path class="cls-1" d="M143.64,224.1l-64.26,38.55c-20.74,12.44-32.82,35.39-31.33,59.53l7.55,122.62c1.11,18.08,9.75,34.87,23.81,46.3l153.59,124.79c7.69,6.25,13.85,14.19,18,23.19l68.64,149.12c6.42,13.95,17.6,25.17,31.53,31.65l80.54,37.46c15.24,7.09,32.63,7.98,48.51,2.48l110.21-38.15c11.28-3.9,23.42-4.62,35.08-2.06l200.59,44.03c14.02,3.08,28.66,1.41,41.62-4.73l54.19-25.67c22.63-10.72,37.05-33.51,37.05-58.55v-132.95c0-10.72,2.66-21.27,7.74-30.71l57.62-107c10.36-19.24,10.32-42.41-.1-61.62l-22.76-41.93c-10.12-18.63-28.71-31.14-49.78-33.48l-231.34-25.7c-15.98-1.78-32.05,2.45-45.08,11.87l-53.32,38.51c-19.55,14.12-45.33,16.21-66.9,5.43l-89.7-44.85c-20.61-10.3-34.19-30.78-35.68-53.77h0c-2.01-31.09-25.86-56.35-56.79-60.13l-188.03-22.98c-14.32-1.75-28.82,1.33-41.19,8.75Z"/>
</svg>