<?xml version="1.0" encoding="UTF-8"?>
<svg id="a" xmlns="http://www.w3.org/2000/svg" viewBox="0 0 1080 1080">
  <defs>
    <style>
      .cls-1 {
        fill: #2e855e;
      }
    </style>
  </defs>
  <path class="cls-1" d="M205.99,191.09l14.57-14.05c21.06-20.31,49.18-31.66,78.44-31.66h10.13c24.62,0,48.56,8.04,68.19,22.89l141.56,107.13c28.23,21.36,44.81,54.71,44.81,90.11v109.87c0,33.86,15.18,65.93,41.37,87.39l121.99,99.99c10.07,8.25,21.48,14.7,33.74,19.06l72.68,25.87c48.1,17.12,78.74,64.36,74.77,115.26h0c-4.49,57.52-51.59,102.41-109.26,104.15l-248.05,7.46c-25.83.78-51.15-7.32-71.73-22.95l-117.98-89.58c-5.51-4.18-10.63-8.87-15.28-13.99l-69.84-76.83c-25.18-27.7-35.01-66.07-26.25-102.46l12.56-52.15c7.33-30.45,1.69-62.58-15.57-88.72l-56.69-85.85c-12.2-18.48-18.71-40.13-18.71-62.27v-67.34c0-30.68,12.48-60.05,34.56-81.34Z"/>
</svg>