<?xml version="1.0" encoding="UTF-8"?>
<svg id="a" xmlns="http://www.w3.org/2000/svg" viewBox="0 0 1080 1080">
  <defs>
    <style>
      .cls-1 {
        fill: #2a43ae;
      }
    </style>
  </defs>
  <path class="cls-1" d="M264.89,201.86l56-53.56c21.98-21.03,51.23-32.76,81.65-32.76h51.83c37.06,0,71.97,17.39,94.29,46.97l43.42,57.54c23.87,31.63,30.29,73.11,17.11,110.48l-23.54,66.7c-5.3,15.02-7.51,30.95-6.49,46.84l4.67,73.12c1.67,26.17,12,51.05,29.37,70.7l68.29,77.28c10.65,12.06,23.66,21.81,38.22,28.66l77.25,36.35c31.67,14.91,55.11,43.09,63.98,76.96l2.43,9.27c9.87,37.7.52,77.85-25.01,107.3h0c-22.44,25.89-55.01,40.76-89.27,40.76h-83.54c-28.39,0-55.83-10.23-77.3-28.8l-96.02-83.1c-15.03-13.01-33.11-22.02-52.55-26.18l-96.94-20.77c-24.28-5.2-46.31-17.93-62.95-36.36l-36.56-40.52c-28.52-31.6-37.83-76.11-24.37-116.5l30.68-92.03c5.92-17.77,7.54-36.7,4.7-55.22l-24.46-159.9c-5.82-38.08,7.28-76.6,35.12-103.22Z"/>
</svg>