<?xml version="1.0" encoding="UTF-8"?>
<svg id="Layer_1" data-name="Layer 1" xmlns="http://www.w3.org/2000/svg" viewBox="0 0 1080 1080">
  <defs>
    <style>
      .cls-1 {
        fill: #fff;
      }
    </style>
  </defs>
  <path class="cls-1" d="M481.67,492.47l10.77.04,11.25,26.23,10.37-26.5,12.79.07-49.58,126.88-13.38.03-49.57-126.78,12.61-.25,10.37,26.64,12.11-26.44,10.06.13,11.01,27.17,11.19-27.22ZM470.49,604.76l11.53-29.26-27.62-68.92-11.85,25.96,27.94,72.21ZM487.04,562.26l11.48-29.86-11.46-26.35-11.39,27.25,11.37,28.96Z"/>
  <path class="cls-1" d="M387.93,589.4c-8.07,18.86-24.3,30.4-43.73,32-23.06,1.9-43.45-9.04-53.24-30.4-9.76-21.29-9.87-46.82-.83-68.51,8.2-19.67,25.95-31.64,46.88-32.37,22.4-.78,41.71,10.86,50.73,31.72,9.1,21.06,9.45,45.92.2,67.55ZM339.56,610.74c16.1-.1,28.94-8.68,35.74-22.34,10.01-20.08,9.63-50.78-2.72-69.58-8.21-12.5-21.6-18.66-36.63-17.72-13.81.87-25.43,8.7-32.23,20.89-5.82,10.44-7.83,22.15-7.85,34.24-.05,28.1,13.57,54.69,43.69,54.5Z"/>
  <polygon class="cls-1" points="792.16 618.98 780.44 619.41 780.46 557.23 709.07 557.24 709.07 619.34 697.07 619.24 697.07 492.34 709.07 492.25 709.07 546.39 780.45 546.4 780.44 492.24 792.15 492.33 792.16 618.98"/>
  <path class="cls-1" d="M905.13,585.3l-59.44-.04-12.84,34.43h-13.15s49.09-125.41,49.09-125.41l13.31.1,48.98,125.28-13.12.06-12.83-34.41ZM901.3,574.89l-25.88-68.08-25.97,68.23,51.85-.15Z"/>
  <path class="cls-1" d="M166.2,582.48c7.7,19.93,26.36,30.24,47.01,27.96,15.13-1.67,27.53-10.8,35.1-24.17l7.85,5.08c-8.9,17.96-25.34,28.94-44.99,30.14-24.32,1.48-45.8-10.42-55.55-33.03-8.84-20.51-8.96-44.1-.22-64.7,9.53-22.45,30.7-34.64,54.67-33.67,25.64,1.05,46.31,19.2,48.18,45.14h-12.24c-2.66-21.25-19.76-35.34-41.05-34.18-16.51.9-30.66,10.14-37.6,25.65-7.79,17.4-8.21,37.52-1.16,55.78Z"/>
  <polygon class="cls-1" points="669.7 609.01 669.7 619.34 592.82 619.27 592.89 492.35 604.74 492.27 604.73 609.01 669.7 609.01"/>
  <rect class="cls-1" x="552.57" y="492.18" width="12.35" height="127.22"/>
  <path class="cls-1" d="M894.04,476.72c-7.41,3.74-15.59,1.03-21.13-4.37-2.58-2.51-6.78-5.28-10.21-4.69-4.64.8-6.77,5.35-7.79,9.4l-8.83-1.64c1.42-3.97,3.01-8.1,5.69-11.47,4.7-5.91,13.5-7.4,19.71-3.08l9.5,6.61c2.37,1.65,6.89,2.74,9.5.94,2.34-1.61,3.76-4.26,5.18-8.25l8.54,1.23c-1.23,6.25-3.93,12.17-10.16,15.31Z"/>
</svg>