<?xml version="1.0" encoding="UTF-8"?>
<svg id="Layer_1" data-name="Layer 1" xmlns="http://www.w3.org/2000/svg" viewBox="0 0 1080 1080">
  <defs>
    <style>
      .cls-1 {
        fill: none;
      }

      .cls-2 {
        fill: #1a3b79;
      }
    </style>
  </defs>
  <polygon class="cls-1" points="829.47 369.56 829.47 383.38 822.79 383.38 827.52 373.6 829.47 369.56"/>
  <polygon class="cls-2" points="918.23 531.4 918.23 802.97 871.32 802.97 871.32 535.83 776.39 339.32 745.31 403.69 743.35 407.73 738.63 417.51 680.54 537.78 677.84 543.39 634.18 543.39 631.48 537.78 535.63 339.35 444.12 528.76 437.05 543.39 402.13 543.39 395.09 528.79 395.09 528.76 303.58 339.35 208.65 535.83 208.65 756.06 690.61 756.06 690.61 802.97 161.77 802.97 161.77 531.33 165.39 523.84 279.05 288.6 284.62 277.03 322.51 277.03 326.03 284.36 328.08 288.6 419.59 478 511.1 288.63 511.1 288.6 514.04 282.57 516.67 277.03 554.56 277.03 558.08 284.36 560.13 288.6 656.01 487.03 751.89 288.6 757.46 277.03 795.35 277.03 798.86 284.36 914.58 523.84 918.23 531.4"/>
</svg>