<?xml version="1.0" encoding="UTF-8"?>
<svg id="Layer_1" data-name="Layer 1" xmlns="http://www.w3.org/2000/svg" viewBox="0 0 1080 1080">
  <defs>
    <style>
      .cls-1 {
        fill: #fff;
      }
    </style>
  </defs>
  <path class="cls-1" d="M967.21,539.96v117.87l-1.02.21c-.52.18-1.54,23.24-24.06,45.71-17.22,17.19-39.55,24.96-63.92,23.65-21.89-1.17-41.43-10.94-56.23-27.11-13.09-14.3-20.48-31.68-21.48-51.42l-.05-108.75,41.59-.03.02,109.65c2.67,16.06,13.78,29.51,29.21,34.27,16.64,5.13,33.89-.31,44.62-13.65,5.67-7.05,9.41-15.2,9.42-24.74l.09-105.46,41.82-.18Z"/>
  <path class="cls-1" d="M395.61,539.7c7.39.22,14.56-.38,21.77.4,21.02,2.25,39.46,11.81,54.29,26.47,22.86,22.58,31.71,52.44,26.19,84.16-3.5,20.12-13.97,37.49-28.71,51.31-18.74,17.57-42.21,25.57-67.86,24.62-23.33-.87-44.38-10.08-61.08-26.42-17.67-17.28-28.24-39.93-28.25-65.1l-.07-149.79-59.37,43.88-.55-35.94,60.52-70.32v-46.87s19.33-23.63,19.33-23.63l19.23,23.31.05,47.2,57.78,70.3-.04,37-55.27-45.04.06,149.86c0,13.5,6.17,25.12,15,34.34,12.06,12.58,28.41,17.51,45.69,14.93,11.34-1.7,20.92-7.31,28.91-15.36,19.35-19.5,19.63-50.62,1.12-71.02-20.28-22.36-55.07-23.33-76.17-.92l-.09-49.93c8.88-3.87,17.95-6.05,27.55-7.43Z"/>
  <path class="cls-1" d="M642.37,640.67c2.45,20.88,18.09,38.32,37.91,43.48,16.83,4.38,33.76.55,46.82-10.37l51.66-.09c-14.72,31.21-45.27,51.84-78.93,53.69-26.33,1.44-49.98-6.67-69.06-24.15-20.95-19.19-31.97-45.09-30.67-73.73,1.05-23.07,9.86-43.87,26.04-60.43,13.44-13.76,29.79-23.67,48.98-27.13,19.14-3.46,38.44-2.09,56.33,5.86,22.35,9.94,39.97,28.09,49.48,50.56,6.47,15.28,7.73,31.53,5.8,48.04h-127.79s-.08-31.12-.08-31.12l83.71-.03c-5.58-15.3-18.41-26.36-31.84-30.81-17.08-5.65-34.52-2.75-47.8,7.37-15.48,11.81-22.92,28.91-20.57,48.86Z"/>
  <path class="cls-1" d="M192.52,683.88c19.02,5.27,37.48.13,51.39-14l.21,49.62c-9.41,4.29-19.18,6.56-29.47,7.86l-18.5-.36c-22.53-1.99-42.23-12.51-57.68-28.67-15.41-16.13-24.21-36.11-25.5-58.48-.72-12.48.59-24.73,4.83-36.83,8.7-24.78,27.59-44.96,51.75-55.5,17.77-7.75,36.97-9.07,55.89-5.58,19.3,3.57,35.87,13.53,49.23,27.57,15.98,16.8,24.59,37.52,25.65,60.93l.06,96.81h-41.64s-.01-93.61-.01-93.61c-.09-16.63-7.37-30.66-20.29-41.07-18.3-14.75-45.53-14.68-63.92.04-16.95,13.56-24.2,34.71-18.08,55.78,4.9,16.87,18.72,30.67,36.07,35.48Z"/>
  <path class="cls-1" d="M552.81,628.53l-.02,98.73h-41.93s.06-99.21.06-99.21c1.36-22.44,9.86-42.32,25.34-58.31,17.69-19.29,42.29-29.82,68.39-29.54l-.06,41.81c-13.12-.11-24.45,4.27-33.85,12.49-10.16,8.76-16.62,20.11-17.93,34.03Z"/>
</svg>