<?xml version="1.0" encoding="UTF-8"?>
<svg id="a" xmlns="http://www.w3.org/2000/svg" viewBox="0 0 1080 1080">
  <defs>
    <style>
      .cls-1 {
        fill: #2650c6;
      }
    </style>
  </defs>
  <path class="cls-1" d="M358.87,522.55c-8.42-6.75-7.8-28.23-2.16-36.93,2.34-3.61,9.68-6.56,15.49-7.64,52.55-9.81,103.84,23.46,112.72,76.78,4.87,29.2-4.86,57.66-24.82,78.05-19.43,19.84-45.88,30.61-75.65,28.82-49.67-2.98-90.17-43.48-90-94.16l.48-137.69c.04-11.33,17.01-12.99,24.48-12.65,11.11.51,19.83,6.47,19.88,18.88l.48,135.02c.08,22.68,19.19,40.81,37.51,45.16,23.19,5.5,44.58-2.19,56.91-22.53,10.66-17.59,8.07-41.33-5.39-56.12-13.48-14.82-34.95-21.83-54.74-14.16-4.82,1.87-11.91,1.82-15.21-.82Z"/>
  <path class="cls-1" d="M745.04,548.81c-7.46-16.46-23.92-26.13-42.14-26.86-23.16-.94-41.98,12.49-49.18,33.41-7.02,20.4,1.27,43.75,20.5,56.03,19.32,12.34,43.87,8.31,61.95-4.45,11.19-7.9,33.16,10.24,34.42,19.54,2.5,18.47-57,51.8-109.17,27.8-34.54-15.89-55.96-48.54-55.31-85.37.64-36.56,22.45-69.56,57.23-83.99,29.8-12.36,62.7-10.46,90.53,8.26,23.46,15.79,41.75,42.57,42.18,74.44.06,4.61-1.31,12.29-3.36,15.67s-9.84,6.97-15.04,6.96l-91.43-.14c-11.42-.02-17.37-10.42-17.33-20.5.12-30.34,37.98-19.53,76.15-20.8Z"/>
  <path class="cls-1" d="M242.23,570.39c-.03-17.15-10.39-31.74-21.65-39.6-13.75-9.6-30.47-11.19-46.28-5.68-25.27,8.8-36.84,36.35-28.96,60.45,8.38,25.64,35.07,38.83,62.04,30.75,4.79-1.43,11.97-2.54,15.28-.38,9.38,6.09,8.77,37.56-2.81,41.75-30.54,11.06-64.88,3.41-89.1-17.3-24.35-20.81-37.6-53.1-31.38-86.3,8.9-47.54,51.93-80.05,99.42-76.56,46.1,3.39,85.54,39.37,88.15,87.98l.74,76.61c.05,4.95-3.31,12.2-6.58,14.63-7.17,5.3-24.74,5.25-32.7-.11-3.34-2.25-6.03-9.52-6.04-14.53l-.13-71.71Z"/>
  <path class="cls-1" d="M958.9,478.96c12.78-.51,23.27,5.6,23.26,18.67l-.12,86.95c-.05,34.21-23.59,62.27-55.14,73.23-21.57,7.49-44.52,6.68-65.41-1.99-30.22-12.54-50.41-40.17-50.45-73.39l-.09-84.96c-.01-12.07,10.17-18.82,21.86-18.25,5.06.25,12.96,1.41,16.59,4,3.24,2.31,6.35,9.67,6.37,14.44l.38,84.79c.1,21.61,20.11,35.56,39.95,35.86,23.97.35,41.49-16.65,41.46-40.28l-.09-80.48c-.01-12.06,9.51-18.1,21.43-18.57Z"/>
  <path class="cls-1" d="M544.8,577.95l.04,64.19c0,4.35-2.24,11.63-5.13,13.9-10.99,8.67-39.05,5.82-39.34-9.93-.49-26.56-1.53-52.44.37-78.74,5.51-76.46,91.47-103.04,106.01-84.72,2.82,3.55,4.12,11.64,4.45,16.55.85,12.64-5.28,20.06-17.31,21.41-28.18,3.18-49.1,28.81-49.09,57.33Z"/>
</svg>