<?xml version="1.0" encoding="UTF-8"?>
<svg id="Layer_1" data-name="Layer 1" xmlns="http://www.w3.org/2000/svg" viewBox="0 0 1080 1080">
  <defs>
    <style>
      .cls-1 {
        fill: #fff;
      }
    </style>
  </defs>
  <path class="cls-1" d="M876.77,414.94l.02,28.77h73.71s.04,73.46.04,73.46l28.69-.03v-102.2s-102.46,0-102.46,0ZM155.05,539.08l13.71.07v-21.34c-8.04-.75-15.98-1.29-24-.32-20.27,2.45-28.28,19.17-26.84,39.44l-17.16.02v19.44s17.24.01,17.24.01v85.74s29.23.02,29.23.02l.02-85.74,19.74-.02.02-19.46h-19.89s.42-10.59.42-10.59c.13-3.44,3.93-7.29,7.51-7.27ZM292.51,516.94v145.22h28.97v-145.22h-28.97ZM340.76,516.94v145.25h29.24v-145.25h-29.24ZM476.27,615.64c-3.36-6.8-10.64-11.5-17.63-13.26l-25.65-6.49c-9.12-2.3-20.1-4.68-19.61-13.21.52-8.94,14.58-11.01,26.17-7.43,5.89,1.81,9.12,6.39,9.37,12.71l27.57-.05c-.35-14.2-9.43-26.04-23.26-30.38-15.73-4.93-33.29-4.71-48.72.68-12.86,4.49-20.19,15.59-20.17,28.69.03,19.21,13.74,23.99,30.24,28.44l28.29,7.63c4.49,1.22,7.43,5.46,7.47,9.44.03,4.4-2.4,8.25-6.66,10.35-7.89,3.88-17.37,3.7-25.23-.19-5.88-2.91-8.81-8.43-8.9-14.66l-27.54.06c.02,14.96,8.97,27.71,23.43,32.68,16.69,5.74,35.33,6.1,52.47-.23,18.62-6.88,26.81-27.68,18.36-44.78ZM560.2,621.73c-.97,11.4-8.12,19.62-17.95,21.1-10.38,1.57-20.18-2.53-24.6-13.11-5.56-13.3-5.29-28.67.79-41.08,4.6-9.39,13.49-13.61,23.31-12.43,9.59,1.16,16.7,7.56,17.42,17.92l28.54.04c-.05-15.58-9.95-29.14-24.76-35.29-26.97-11.2-60.97-3.52-72.96,25.1-12.07,28.83-4.05,65.25,26.09,76.92,15.49,6,33.1,5.51,48.11-1.75,14.55-7.04,22.4-21.34,24.26-37.43h-28.25ZM664.18,554.83c-17.15-3.25-33.01,6.09-40.01,21.3l-.24-19.2-27.71.03.02,105.24,29.25-.15.33-54.1c.07-10.57,5.84-19.79,14.78-24.32,7.7-3.05,15.18-2.96,23.65-1.4l-.07-27.4ZM711.99,553.98c-24.93.2-46.02,15.86-51.72,40.42-7.42,31.99,7.71,65.06,41.7,69.78,14.29,1.98,28.59.21,40.86-7.36,9.4-6.47,15.09-15.82,18.66-27.33h-25.32c-4.91,9.91-14.71,14.28-25.24,13.58-15.73-.93-22.98-10.38-23.2-26.36h75.49c2.53-33.32-16.28-63.01-51.23-62.73ZM687.73,598.2c.47-13.57,11.06-22.79,24.31-22.18,5.77.27,10.93,1.85,15.2,5.64,3.33,4.87,5.44,9.2,6.88,16.44l-46.39.1ZM821.01,554c-23.37-.05-43.81,13.41-51.03,35.93-4.35,13.55-4.11,28.07.43,41.54,6.17,18.3,21.4,30.25,40.49,32.76,28.33,3.73,51.03-7.09,58.99-34.72l-25.34-.07c-5.01,10.36-15.12,14.34-25.61,13.59-15.63-1.09-22.3-10.44-22.96-26.32h75.78c2.23-33.24-16.24-62.65-50.75-62.71ZM796.07,598.19c.58-13.89,11.59-22.85,24.92-22.18,8.35.42,14.82,3.87,18.53,11.63l2.96,10.47-46.41.08ZM958.96,556.99c-18.21-6.62-40.2-2.6-50.76,14.52l-.28-14.58-27.41.03v105.16l28.96.03.04-60.41c1-6.77,1.42-13.89,6.49-18.99,6.54-6.57,18.96-7.84,26.88-2.43,5.51,3.76,5.72,10.16,7.08,15.79l.05,66.04h29.22s0-66.16,0-66.16c-.45-17.04-3.94-33.07-20.27-39ZM273.99,556.95h-28.99s-.02,60.98-.02,60.98c-1.01,6.94-1.67,14.16-7.08,19.1-6.8,6.2-19.03,7.05-26.51,1.69-5.31-3.81-5.72-10.61-6.88-16.59l-.04-65.18h-28.95l-.04,67.96c.29,15.77,4.12,30.96,18.86,36.71,17.95,7.01,41.01,3.76,52.12-14.02l.11,14.57,27.43-.04v-105.18Z"/>
  <path class="cls-1" d="M821.01,554c-23.37-.05-43.81,13.41-51.03,35.93-4.35,13.55-4.11,28.07.43,41.54,6.17,18.3,21.4,30.25,40.49,32.76,28.33,3.73,51.03-7.09,58.99-34.72l-25.34-.07c-5.01,10.36-15.12,14.34-25.61,13.59-15.63-1.09-22.3-10.44-22.96-26.32h75.78c2.23-33.24-16.24-62.65-50.75-62.71ZM796.07,598.19c.58-13.89,11.59-22.85,24.92-22.18,8.35.42,14.82,3.87,18.53,11.63l2.96,10.47-46.41.08Z"/>
  <path class="cls-1" d="M711.99,553.98c-24.93.2-46.02,15.86-51.72,40.42-7.42,31.99,7.71,65.06,41.7,69.78,14.29,1.98,28.59.21,40.86-7.36,9.4-6.47,15.09-15.82,18.66-27.33h-25.32c-4.91,9.91-14.71,14.28-25.24,13.58-15.73-.93-22.98-10.38-23.2-26.36h75.49c2.53-33.32-16.28-63.01-51.23-62.73ZM687.73,598.2c.47-13.57,11.06-22.79,24.31-22.18,5.77.27,10.93,1.85,15.2,5.64,3.33,4.87,5.44,9.2,6.88,16.44l-46.39.1Z"/>
  <path class="cls-1" d="M273.99,556.95l.02,105.19-27.43.03-.11-14.56c-11.1,17.78-34.17,21.02-52.12,14.01-14.73-5.75-18.57-20.94-18.86-36.71l.04-67.96h28.95s.04,65.18.04,65.18c1.17,5.98,1.57,12.78,6.88,16.59,7.49,5.36,19.71,4.52,26.51-1.69,5.41-4.93,6.06-12.16,7.08-19.1l.02-60.99h28.99Z"/>
  <path class="cls-1" d="M942.88,580.32c-7.92-5.4-20.34-4.14-26.88,2.43-5.07,5.1-5.49,12.22-6.5,18.99l-.04,60.41-28.96-.03v-105.16s27.41-.04,27.41-.04l.28,14.59c10.56-17.13,32.55-21.14,50.76-14.53,16.33,5.94,19.82,21.97,20.28,39v66.17s-29.22-.01-29.22-.01l-.05-66.04c-1.36-5.63-1.57-12.03-7.08-15.8Z"/>
  <path class="cls-1" d="M457.91,660.42c-17.14,6.33-35.78,5.97-52.47.23-14.46-4.97-23.41-17.72-23.43-32.68l27.54-.06c.1,6.23,3.02,11.75,8.9,14.66,7.86,3.89,17.35,4.07,25.24.19,4.25-2.09,6.69-5.95,6.65-10.34-.04-3.98-2.98-8.23-7.47-9.44l-28.29-7.63c-16.5-4.45-30.21-9.23-30.24-28.44-.02-13.1,7.31-24.2,20.17-28.69,15.43-5.39,32.99-5.61,48.72-.68,13.83,4.33,22.91,16.18,23.26,30.38l-27.57.05c-.25-6.32-3.48-10.9-9.37-12.72-11.59-3.57-25.65-1.5-26.17,7.44-.49,8.53,10.49,10.91,19.61,13.21l25.65,6.48c6.99,1.77,14.27,6.46,17.62,13.26,8.45,17.11.26,37.9-18.36,44.78Z"/>
  <path class="cls-1" d="M517.65,629.72c4.42,10.58,14.22,14.68,24.59,13.11,9.83-1.48,16.98-9.7,17.95-21.11h28.25c-1.86,16.08-9.7,30.39-24.26,37.43-15,7.26-32.62,7.75-48.11,1.75-30.14-11.67-38.16-48.09-26.09-76.92,11.98-28.61,45.98-36.29,72.95-25.1,14.82,6.15,24.72,19.7,24.76,35.28l-28.54-.03c-.72-10.36-7.83-16.76-17.42-17.92-9.82-1.19-18.71,3.03-23.31,12.42-6.08,12.41-6.35,27.78-.79,41.08Z"/>
  <path class="cls-1" d="M147.25,576.42l-.02,85.74-29.23-.02v-85.74s-17.22,0-17.22,0v-19.45s17.16-.01,17.16-.01c-1.45-20.28,6.57-36.99,26.83-39.44,8.02-.97,15.96-.44,24.02.32v21.34s-13.72-.07-13.72-.07c-3.58-.02-7.38,3.83-7.52,7.27l-.41,10.6,19.88-.02v19.46s-19.76.03-19.76.03Z"/>
  <polygon class="cls-1" points="950.54 517.17 950.5 443.72 876.79 443.71 876.77 414.95 979.24 414.94 979.23 517.14 950.54 517.17"/>
  <rect class="cls-1" x="340.76" y="516.94" width="29.24" height="145.24"/>
  <path class="cls-1" d="M625.49,662.05l-29.24.15-.02-105.25,27.71-.02.25,19.2c6.99-15.21,22.85-24.56,40.01-21.3l.07,27.39c-8.47-1.56-15.95-1.65-23.65,1.4-8.94,4.54-14.71,13.75-14.78,24.33l-.34,54.1Z"/>
  <rect class="cls-1" x="292.51" y="516.94" width="28.98" height="145.22"/>
</svg>