<?xml version="1.0" encoding="UTF-8"?>
<svg id="Layer_1" data-name="Layer 1" xmlns="http://www.w3.org/2000/svg" viewBox="0 0 1080 1080">
  <defs>
    <style>
      .cls-1 {
        fill: #fff;
      }
    </style>
  </defs>
  <path class="cls-1" d="M431.65,679.06c-10.43,0-20.78-1.74-30.76-5.17-6.42-2.21-12.12-5.58-16.89-9.83v12.13h-57.24v-.03h-48.25v-.04l-45.83.07v-.54c-6.17,2.24-12.94,3.41-20.08,3.41-7.91,0-15.99-1.52-23.35-4.4-17.95-7-27.29-23.65-27.77-49.49l.02-34.76h-.25l-.02,85.76-57.23-.04v-85.74h-17.24v-47.42l17.67-.02c3.16-21.86,17.34-36.78,38.65-39.35,3.47-.42,7.04-.62,10.92-.62,5.6,0,11.03.43,16.06.9l12.7,1.18v37.9h35.7l.05,77.89c.09.49.17.98.26,1.48.29,1.7.72,4.17,1.15,5.25.7.36,1.87.69,3.39.69,2.37,0,4.3-.79,5.16-1.58,1.3-1.19,1.88-5.28,2.44-9.23l.07-.52.02-73.98h47.51v-40.01h105.49v51.53c4.4-4.09,9.76-7.33,15.9-9.48,9.5-3.32,19.57-5,29.95-5,9.45,0,18.73,1.41,27.58,4.18,11.87,3.73,21.32,11.45,27.03,21.46,11.99-16.12,31.5-25.68,53.81-25.68,10.22,0,20.61,2.08,30.07,6,5.12,2.13,9.79,4.93,13.9,8.27v-11.24s55.54-.06,55.54-.06l.02,1.4c6.12-2.67,12.78-4.12,19.61-4.12,3.13,0,6.29.3,9.41.89l11.36,2.15v5.55c9.88-5.57,21.37-8.7,33.73-8.8h.6c18.47,0,34.48,6.75,46.33,19.52,2.42,2.61,4.61,5.43,6.58,8.45,12.18-17.42,32.39-27.95,55.49-27.95h.16c18.03.03,33.74,6.52,45.47,18.79v-15.81l55.14-.06v.56c6.23-2.3,13.05-3.5,20.27-3.5s14.77,1.3,21.82,3.86c28.39,10.31,29.21,41.53,29.48,51.79v.37s0,80.16,0,80.16h-57.21l-.06-78.48c-.15-.69-.28-1.35-.4-1.97-.26-1.29-.63-3.16-.96-4.05-.87-.46-2.11-.72-3.42-.72-2.46,0-4.45.88-5.26,1.69-1.19,1.19-1.71,5.01-2.22,8.71-.06.47-.13.94-.19,1.41l-.05,73.42-56.95-.06v-13.83c-11.25,10.81-26.7,16.67-45.11,16.67-3.98,0-8.13-.28-12.32-.83-18.03-2.37-33.25-11.41-43.19-25.12-4.11,6.15-9.13,11.24-15.12,15.37l-.29.2-.3.18c-10.97,6.76-23.63,10.19-37.64,10.19-4.06,0-8.27-.3-12.49-.88-18-2.5-33.4-11.86-43.37-26.35-10.44-15.18-14.4-34.85-11.18-54.74-3.51,2.41-5.65,6.52-5.68,11.08l-.42,67.94-57.16.29v-12.42c-3.59,3.13-7.59,5.79-11.96,7.9-9.85,4.76-20.93,7.28-32.06,7.28-9.35,0-18.51-1.71-27.21-5.08-10.15-3.93-18.72-10.15-25.35-18.32-5.48,8.11-13.48,14.43-22.91,17.91-9.9,3.66-20.37,5.51-31.11,5.51ZM538.56,590.02c-3.55,0-5.95,1.52-7.55,4.78-4.32,8.82-4.49,19.85-.45,29.52.94,2.25,2.64,4.83,7.46,4.83.68,0,1.4-.06,2.13-.17,4.66-.7,5.78-5.77,6.04-7.96v-12.92h-.09l-.9-13.01c-.11-1.54-.31-4.41-5.14-4.99-.51-.06-1.02-.09-1.51-.09ZM936.51,457.71h-73.71l-.04-56.77h130.47v130.19l-56.68.06-.04-73.47Z"/>
  <path class="cls-1" d="M530.57,624.32c.94,2.25,2.64,4.83,7.45,4.83h0c.68,0,1.4-.06,2.12-.17,5.06-.76,5.94-6.66,6.1-8.46l1.06-12.42h-1.21s-.9-13.02-.9-13.02c-.11-1.54-.31-4.41-5.14-4.99-.52-.06-1.04-.09-1.53-.09-3.54,0-5.93,1.52-7.53,4.78-4.19,8.55-4.47,19.18-.8,28.63l.38.9Z"/>
  <path class="cls-1" d="M993.23,595.6v80.56l-57.21-.03-.06-78.47c-.14-.69-.27-1.35-.4-1.97-.25-1.28-.62-3.13-.95-4.03-.87-.46-2.11-.72-3.43-.72-2.46,0-4.45.87-5.25,1.69-1.19,1.19-1.72,5-2.23,8.69-.06.48-.13.96-.2,1.44l-.05,73.41-56.95-.06v-13.82c-11.25,10.8-26.69,16.65-45.1,16.65-3.98,0-8.13-.28-12.32-.83-18.04-2.37-33.26-11.41-43.18-25.13-4.12,6.15-9.14,11.24-15.13,15.37l-.29.2-.3.19c-10.96,6.76-23.62,10.19-37.63,10.19-4.07,0-8.27-.3-12.5-.88-18-2.5-33.4-11.86-43.37-26.35-10.44-15.18-14.4-34.86-11.16-54.74-3.56,2.42-5.64,6.45-5.68,11.08l-.42,68.01h-13.92l-43.24.22v-12.44c-3.59,3.14-7.6,5.8-11.98,7.92-9.84,4.77-20.92,7.28-32.05,7.28-9.36,0-18.51-1.7-27.21-5.07-10.16-3.94-18.72-10.16-25.35-18.33-5.47,8.11-13.47,14.43-22.91,17.92-4.94,1.83-10.04,3.21-15.23,4.13-5.2.92-10.51,1.38-15.88,1.38-10.43,0-20.78-1.74-30.76-5.17-6.43-2.21-12.12-5.58-16.89-9.84v12.13h-57.24v-.02h-48.25v-.03l-45.82.06v-.53c-6.17,2.23-12.93,3.4-20.06,3.4-7.92,0-16-1.52-23.37-4.4-17.95-7-27.29-23.66-27.76-49.49l.02-34.76h-.27l-.02,85.76-57.23-.04v-85.73h-17.22v-47.44h17.67c3.15-21.87,17.32-36.78,38.64-39.36,3.49-.42,7.08-.63,10.96-.63,5.65,0,11.06.44,16.06.91l12.68,1.2v37.87h35.68l.05,77.88c.09.5.18,1.01.27,1.52.29,1.69.72,4.15,1.15,5.22.71.36,1.88.7,3.39.7,2.36,0,4.29-.79,5.14-1.58,1.3-1.18,1.9-5.43,2.44-9.17l.08-.6.03-73.98h47.49v-40h105.49v51.54c4.4-4.1,9.76-7.34,15.9-9.48,9.5-3.32,19.57-5,29.94-5,9.46,0,18.73,1.41,27.58,4.18,11.87,3.72,21.32,11.44,27.02,21.45,11.97-16.12,31.5-25.67,53.81-25.67,10.21,0,20.6,2.07,30.05,5.99,5.14,2.13,9.81,4.94,13.93,8.29v-11.28l55.53-.04.02,1.39c6.12-2.67,12.78-4.13,19.61-4.13,3.13,0,6.31.3,9.43.9l11.35,2.15v5.54c9.87-5.56,21.36-8.69,33.71-8.79h.6c18.47,0,34.49,6.75,46.33,19.53,2.42,2.6,4.61,5.43,6.58,8.45,12.17-17.42,32.39-27.96,55.49-27.96h.16c18.04.03,33.74,6.52,45.46,18.79v-15.81l55.15-.08v.57c6.22-2.3,13.05-3.5,20.27-3.5s14.76,1.29,21.81,3.85c28.38,10.32,29.22,41.53,29.5,51.78Z"/>
  <polygon class="cls-1" points="936.51 457.72 862.8 457.71 862.76 400.95 993.24 400.94 993.23 531.13 936.55 531.18 936.51 457.72"/>
  <path d="M876.77,414.94l.02,28.77h73.71l.04,73.46,28.69-.03v-102.2h-102.46ZM155.05,539.08l13.71.07v-21.34c-8.04-.75-15.98-1.29-24-.32-20.27,2.45-28.28,19.17-26.84,39.44l-17.16.02v19.44h17.24v85.75l29.23.02.02-85.74,19.74-.02.02-19.46h-19.89l.42-10.59c.13-3.44,3.93-7.29,7.51-7.27h0ZM292.51,516.94v145.22h28.97v-145.22h-28.97ZM340.76,516.94v145.25h29.24v-145.25h-29.24ZM476.27,615.64c-3.36-6.8-10.64-11.5-17.63-13.26l-25.65-6.49c-9.12-2.3-20.1-4.68-19.61-13.21.52-8.94,14.58-11.01,26.17-7.43,5.89,1.81,9.12,6.39,9.37,12.71l27.57-.05c-.35-14.2-9.43-26.04-23.26-30.38-15.73-4.93-33.29-4.71-48.72.68-12.86,4.49-20.19,15.59-20.17,28.69.03,19.21,13.74,23.99,30.24,28.44l28.29,7.63c4.49,1.22,7.43,5.46,7.47,9.44.03,4.4-2.4,8.25-6.66,10.35-7.89,3.88-17.37,3.7-25.23-.19-5.88-2.91-8.81-8.43-8.9-14.66l-27.54.06c.02,14.96,8.97,27.71,23.43,32.68,16.69,5.74,35.33,6.1,52.47-.23,18.62-6.88,26.81-27.68,18.36-44.78h0ZM560.2,621.73c-.97,11.4-8.12,19.62-17.95,21.1-10.38,1.57-20.18-2.53-24.6-13.11-5.56-13.3-5.29-28.67.79-41.08,4.6-9.39,13.49-13.61,23.31-12.43,9.59,1.16,16.7,7.56,17.42,17.92l28.54.04c-.05-15.58-9.95-29.14-24.76-35.29-26.97-11.2-60.97-3.52-72.96,25.1-12.07,28.83-4.05,65.25,26.09,76.92,15.49,6,33.1,5.51,48.11-1.75,14.55-7.04,22.4-21.34,24.26-37.43h-28.25,0ZM664.18,554.83c-17.15-3.25-33.01,6.09-40.01,21.3l-.24-19.2-27.71.03.02,105.24,29.25-.15.33-54.1c.07-10.57,5.84-19.79,14.78-24.32,7.7-3.05,15.18-2.96,23.65-1.4l-.07-27.4h0ZM711.99,553.98c-24.93.2-46.02,15.86-51.72,40.42-7.42,31.99,7.71,65.06,41.7,69.78,14.29,1.98,28.59.21,40.86-7.36,9.4-6.47,15.09-15.82,18.66-27.33h-25.32c-4.91,9.91-14.71,14.28-25.24,13.58-15.73-.93-22.98-10.38-23.2-26.36h75.49c2.53-33.32-16.28-63.01-51.23-62.73ZM687.73,598.2c.47-13.57,11.06-22.79,24.31-22.18,5.77.27,10.93,1.85,15.2,5.64,3.33,4.87,5.44,9.2,6.88,16.44l-46.39.1ZM821.01,554c-23.37-.05-43.81,13.41-51.03,35.93-4.35,13.55-4.11,28.07.43,41.54,6.17,18.3,21.4,30.25,40.49,32.76,28.33,3.73,51.03-7.09,58.99-34.72l-25.34-.07c-5.01,10.36-15.12,14.34-25.61,13.59-15.63-1.09-22.3-10.44-22.96-26.32h75.78c2.23-33.24-16.24-62.65-50.75-62.71h0ZM796.07,598.19c.58-13.89,11.59-22.85,24.92-22.18,8.35.42,14.82,3.87,18.53,11.63l2.96,10.47-46.41.08h0ZM958.96,556.99c-18.21-6.62-40.2-2.6-50.76,14.52l-.28-14.58-27.41.03v105.16l28.96.03.04-60.41c1-6.77,1.42-13.89,6.49-18.99,6.54-6.57,18.96-7.84,26.88-2.43,5.51,3.76,5.72,10.16,7.08,15.79l.05,66.04h29.22v-66.16c-.45-17.04-3.94-33.07-20.27-39h0ZM273.99,556.95h-28.99l-.02,60.98c-1.01,6.94-1.67,14.16-7.08,19.1-6.8,6.2-19.03,7.05-26.51,1.69-5.31-3.81-5.72-10.61-6.88-16.59l-.04-65.18h-28.95l-.04,67.96c.29,15.77,4.12,30.96,18.86,36.71,17.95,7.01,41.01,3.76,52.12-14.02l.11,14.57,27.43-.04v-105.18h-.01Z"/>
  <path d="M821.01,554c-23.37-.05-43.81,13.41-51.03,35.93-4.35,13.55-4.11,28.07.43,41.54,6.17,18.3,21.4,30.25,40.49,32.76,28.33,3.73,51.03-7.09,58.99-34.72l-25.34-.07c-5.01,10.36-15.12,14.34-25.61,13.59-15.63-1.09-22.3-10.44-22.96-26.32h75.78c2.23-33.24-16.24-62.65-50.75-62.71h0ZM796.07,598.19c.58-13.89,11.59-22.85,24.92-22.18,8.35.42,14.82,3.87,18.53,11.63l2.96,10.47-46.41.08h0Z"/>
  <path d="M711.99,553.98c-24.93.2-46.02,15.86-51.72,40.42-7.42,31.99,7.71,65.06,41.7,69.78,14.29,1.98,28.59.21,40.86-7.36,9.4-6.47,15.09-15.82,18.66-27.33h-25.32c-4.91,9.91-14.71,14.28-25.24,13.58-15.73-.93-22.98-10.38-23.2-26.36h75.49c2.53-33.32-16.28-63.01-51.23-62.73ZM687.73,598.2c.47-13.57,11.06-22.79,24.31-22.18,5.77.27,10.93,1.85,15.2,5.64,3.33,4.87,5.44,9.2,6.88,16.44l-46.39.1Z"/>
  <path d="M273.99,556.95l.02,105.19-27.43.03-.11-14.56c-11.1,17.78-34.17,21.02-52.12,14.01-14.73-5.75-18.57-20.94-18.86-36.71l.04-67.96h28.95l.04,65.18c1.17,5.98,1.57,12.78,6.88,16.59,7.49,5.36,19.71,4.52,26.51-1.69,5.41-4.93,6.06-12.16,7.08-19.1l.02-60.99h28.99,0Z"/>
  <path d="M942.88,580.32c-7.92-5.4-20.34-4.14-26.88,2.43-5.07,5.1-5.49,12.22-6.5,18.99l-.04,60.41-28.96-.03v-105.16l27.41-.04.28,14.59c10.56-17.13,32.55-21.14,50.76-14.53,16.33,5.94,19.82,21.97,20.28,39v66.17h-29.22s-.05-66.05-.05-66.05c-1.36-5.63-1.57-12.03-7.08-15.8v.02Z"/>
  <path d="M457.91,660.42c-17.14,6.33-35.78,5.97-52.47.23-14.46-4.97-23.41-17.72-23.43-32.68l27.54-.06c.1,6.23,3.02,11.75,8.9,14.66,7.86,3.89,17.35,4.07,25.24.19,4.25-2.09,6.69-5.95,6.65-10.34-.04-3.98-2.98-8.23-7.47-9.44l-28.29-7.63c-16.5-4.45-30.21-9.23-30.24-28.44-.02-13.1,7.31-24.2,20.17-28.69,15.43-5.39,32.99-5.61,48.72-.68,13.83,4.33,22.91,16.18,23.26,30.38l-27.57.05c-.25-6.32-3.48-10.9-9.37-12.72-11.59-3.57-25.65-1.5-26.17,7.44-.49,8.53,10.49,10.91,19.61,13.21l25.65,6.48c6.99,1.77,14.27,6.46,17.62,13.26,8.45,17.11.26,37.9-18.36,44.78h.01Z"/>
  <path d="M517.65,629.72c4.42,10.58,14.22,14.68,24.59,13.11,9.83-1.48,16.98-9.7,17.95-21.11h28.25c-1.86,16.08-9.7,30.39-24.26,37.43-15,7.26-32.62,7.75-48.11,1.75-30.14-11.67-38.16-48.09-26.09-76.92,11.98-28.61,45.98-36.29,72.95-25.1,14.82,6.15,24.72,19.7,24.76,35.28l-28.54-.03c-.72-10.36-7.83-16.76-17.42-17.92-9.82-1.19-18.71,3.03-23.31,12.42-6.08,12.41-6.35,27.78-.79,41.08h.02Z"/>
  <path d="M147.25,576.42l-.02,85.74-29.23-.02v-85.74h-17.22v-19.45h17.16c-1.45-20.29,6.57-37,26.83-39.45,8.02-.97,15.96-.44,24.02.32v21.34l-13.72-.07c-3.58-.02-7.38,3.83-7.52,7.27l-.41,10.6,19.88-.02v19.46l-19.76.03h-.01Z"/>
  <polygon points="950.54 517.17 950.5 443.72 876.79 443.71 876.77 414.95 979.24 414.94 979.23 517.14 950.54 517.17"/>
  <rect x="340.76" y="516.94" width="29.24" height="145.24"/>
  <path d="M625.49,662.05l-29.24.15-.02-105.25,27.71-.02.25,19.2c6.99-15.21,22.85-24.56,40.01-21.3l.07,27.39c-8.47-1.56-15.95-1.65-23.65,1.4-8.94,4.54-14.71,13.75-14.78,24.33l-.34,54.1h0Z"/>
  <rect x="292.51" y="516.94" width="28.98" height="145.22"/>
</svg>